# xmcd
#
# Track frame offsets:
#	150
#	9773
#	22381
#	33069
#	44372
#	56537
#	67090
#	79458
#	90873
#	100496
#	112331
#	122426
#
# Disc length: 1792 seconds
#
# Revision: 1
# Processed by: cddbd v1.5.2PL0 Copyright (c) Steve Scherf et al.
# Submitted via: audiograbber 1.83.01
#
DISCID=9906fe0c
DTITLE=Ernest Tubb - My Pick Of The Hits
DYEAR=1965
DGENRE=Country
TTITLE0=Big City
TTITLE1=The Wild Side Of Life
TTITLE2=I Wonder Where You Are Tonight
TTITLE3=Beggar To A King
TTITLE4=Before I'm Over You
TTITLE5=Each Night At Nine
TTITLE6=Fraulein
TTITLE7=When Two Worlds Collide
TTITLE8=I've Got A Tiger By The Tail
TTITLE9=She Called Me Baby
TTITLE10=Tell Her So
TTITLE11=Don't Be Angry
EXTD=
EXTT0=
EXTT1=
EXTT2=
EXTT3=
EXTT4=
EXTT5=
EXTT6=
EXTT7=
EXTT8=
EXTT9=
EXTT10=
EXTT11=
PLAYORDER=
